# Blender 4.1.1
# www.blender.org
mtllib citylights.mtl
o Cone
v 0.056140 1.110251 0.641223
v 0.077771 1.111247 0.637945
v 0.097285 1.114137 0.628432
v 0.112771 1.118639 0.613615
v 0.122714 1.124311 0.594944
v 0.126140 1.130600 0.574247
v 0.122714 1.136888 0.553550
v 0.112771 1.142561 0.534878
v 0.097285 1.147063 0.520061
v 0.077771 1.149953 0.510548
v 0.056140 1.150949 0.507270
v 0.034509 1.149953 0.510548
v 0.014995 1.147063 0.520061
v -0.000491 1.142561 0.534878
v -0.010434 1.136888 0.553550
v -0.013860 1.130600 0.574247
v -0.010434 1.124311 0.594944
v -0.000491 1.118639 0.613615
v 0.014995 1.114137 0.628432
v 0.034509 1.111247 0.637945
v 0.056140 0.049400 0.245753
vn -0.0000 -0.3493 0.9370
vn -0.0000 -0.9568 -0.2907
vn 0.3084 -0.3351 0.8903
vn 0.5867 -0.2939 0.7546
vn 0.8075 -0.2297 0.5434
vn 0.9492 -0.1488 0.2771
vn 0.9981 -0.0592 -0.0180
vn 0.9492 0.0305 -0.3131
vn 0.8075 0.1114 -0.5793
vn 0.5867 0.1756 -0.7906
vn 0.3084 0.2168 -0.9262
vn -0.0000 0.2310 -0.9730
vn -0.3084 0.2168 -0.9262
vn -0.5867 0.1756 -0.7906
vn -0.8075 0.1114 -0.5793
vn -0.9492 0.0305 -0.3131
vn -0.9981 -0.0592 -0.0180
vn -0.9492 -0.1488 0.2771
vn -0.8075 -0.2297 0.5434
vn -0.5867 -0.2939 0.7546
vn -0.0000 0.9568 0.2907
vn -0.3084 -0.3351 0.8903
vt 0.250000 0.490000
vt 0.250000 0.250000
vt 0.324164 0.478254
vt 0.391068 0.444164
vt 0.444164 0.391068
vt 0.478254 0.324164
vt 0.490000 0.250000
vt 0.478254 0.175836
vt 0.444164 0.108932
vt 0.391068 0.055836
vt 0.324164 0.021746
vt 0.250000 0.010000
vt 0.175836 0.021746
vt 0.108932 0.055836
vt 0.055836 0.108932
vt 0.021746 0.175836
vt 0.010000 0.250000
vt 0.021746 0.324164
vt 0.055836 0.391068
vt 0.108932 0.444164
vt 0.750000 0.490000
vt 0.824164 0.478254
vt 0.891068 0.444164
vt 0.944164 0.391068
vt 0.978254 0.324164
vt 0.990000 0.250000
vt 0.978254 0.175836
vt 0.944164 0.108932
vt 0.891068 0.055836
vt 0.824164 0.021746
vt 0.750000 0.010000
vt 0.675836 0.021746
vt 0.608932 0.055836
vt 0.555836 0.108932
vt 0.521746 0.175836
vt 0.510000 0.250000
vt 0.521746 0.324164
vt 0.555836 0.391068
vt 0.608932 0.444164
vt 0.675836 0.478254
vt 0.175836 0.478254
s 1
f 1/1/1 21/2/2 2/3/3
f 2/3/3 21/2/2 3/4/4
f 3/4/4 21/2/2 4/5/5
f 4/5/5 21/2/2 5/6/6
f 5/6/6 21/2/2 6/7/7
f 6/7/7 21/2/2 7/8/8
f 7/8/8 21/2/2 8/9/9
f 8/9/9 21/2/2 9/10/10
f 9/10/10 21/2/2 10/11/11
f 10/11/11 21/2/2 11/12/12
f 11/12/12 21/2/2 12/13/13
f 12/13/13 21/2/2 13/14/14
f 13/14/14 21/2/2 14/15/15
f 14/15/15 21/2/2 15/16/16
f 15/16/16 21/2/2 16/17/17
f 16/17/17 21/2/2 17/18/18
f 17/18/18 21/2/2 18/19/19
f 18/19/19 21/2/2 19/20/20
f 1/21/21 2/22/21 3/23/21 4/24/21 5/25/21 6/26/21 7/27/21 8/28/21 9/29/21 10/30/21 11/31/21 12/32/21 13/33/21 14/34/21 15/35/21 16/36/21 17/37/21 18/38/21 19/39/21 20/40/21
f 19/20/20 21/2/2 20/41/22
f 20/41/22 21/2/2 1/1/1
o Cone.001
v -0.224810 1.152368 -0.476795
v -0.206832 1.151423 -0.489267
v -0.193511 1.148678 -0.506432
v -0.186150 1.144403 -0.526611
v -0.185471 1.139016 -0.547828
v -0.191539 1.133044 -0.568007
v -0.203761 1.127073 -0.585171
v -0.220940 1.121686 -0.597641
v -0.241395 1.117410 -0.604197
v -0.263123 1.114666 -0.604195
v -0.283998 1.113720 -0.597638
v -0.301975 1.114666 -0.585166
v -0.315297 1.117410 -0.568000
v -0.322657 1.121686 -0.547821
v -0.323337 1.127073 -0.526604
v -0.317268 1.133044 -0.506426
v -0.305047 1.139016 -0.489262
v -0.287867 1.144403 -0.476792
v -0.267413 1.148678 -0.470236
v -0.245685 1.151423 -0.470237
v -0.117189 0.046956 -0.257065
vn 0.4295 0.2161 0.8768
vn 0.1214 -0.9611 0.2479
vn 0.6858 0.2026 0.6990
vn 0.8757 0.1635 0.4543
vn 0.9807 0.1025 0.1665
vn 0.9904 0.0257 -0.1360
vn 0.9039 -0.0594 -0.4237
vn 0.7296 -0.1446 -0.6684
vn 0.4846 -0.2214 -0.8462
vn 0.1930 -0.2823 -0.9397
vn -0.1168 -0.3215 -0.9397
vn -0.4145 -0.3350 -0.8462
vn -0.6708 -0.3215 -0.6684
vn -0.8607 -0.2823 -0.4236
vn -0.9657 -0.2214 -0.1359
vn -0.9754 -0.1446 0.1666
vn -0.8888 -0.0594 0.4543
vn -0.7146 0.0257 0.6991
vn -0.4696 0.1025 0.8769
vn -0.1780 0.1635 0.9704
vn -0.1214 0.9611 -0.2479
vn 0.1318 0.2026 0.9703
vt 0.250000 0.490000
vt 0.250000 0.250000
vt 0.324164 0.478254
vt 0.391068 0.444164
vt 0.444164 0.391068
vt 0.478254 0.324164
vt 0.490000 0.250000
vt 0.478254 0.175836
vt 0.444164 0.108932
vt 0.391068 0.055836
vt 0.324164 0.021746
vt 0.250000 0.010000
vt 0.175836 0.021746
vt 0.108932 0.055836
vt 0.055836 0.108932
vt 0.021746 0.175836
vt 0.010000 0.250000
vt 0.021746 0.324164
vt 0.055836 0.391068
vt 0.108932 0.444164
vt 0.750000 0.490000
vt 0.824164 0.478254
vt 0.891068 0.444164
vt 0.944164 0.391068
vt 0.978254 0.324164
vt 0.990000 0.250000
vt 0.978254 0.175836
vt 0.944164 0.108932
vt 0.891068 0.055836
vt 0.824164 0.021746
vt 0.750000 0.010000
vt 0.675836 0.021746
vt 0.608932 0.055836
vt 0.555836 0.108932
vt 0.521746 0.175836
vt 0.510000 0.250000
vt 0.521746 0.324164
vt 0.555836 0.391068
vt 0.608932 0.444164
vt 0.675836 0.478254
vt 0.175836 0.478254
s 1
f 22/42/23 42/43/24 23/44/25
f 23/44/25 42/43/24 24/45/26
f 24/45/26 42/43/24 25/46/27
f 25/46/27 42/43/24 26/47/28
f 26/47/28 42/43/24 27/48/29
f 27/48/29 42/43/24 28/49/30
f 28/49/30 42/43/24 29/50/31
f 29/50/31 42/43/24 30/51/32
f 30/51/32 42/43/24 31/52/33
f 31/52/33 42/43/24 32/53/34
f 32/53/34 42/43/24 33/54/35
f 33/54/35 42/43/24 34/55/36
f 34/55/36 42/43/24 35/56/37
f 35/56/37 42/43/24 36/57/38
f 36/57/38 42/43/24 37/58/39
f 37/58/39 42/43/24 38/59/40
f 38/59/40 42/43/24 39/60/41
f 39/60/41 42/43/24 40/61/42
f 22/62/43 23/63/43 24/64/43 25/65/43 26/66/43 27/67/43 28/68/43 29/69/43 30/70/43 31/71/43 32/72/43 33/73/43 34/74/43 35/75/43 36/76/43 37/77/43 38/78/43 39/79/43 40/80/43 41/81/43
f 40/61/42 42/43/24 41/82/44
f 41/82/44 42/43/24 22/42/23
o Cone.002
v 0.416664 1.086481 -0.216477
v 0.426036 1.085536 -0.196706
v 0.440799 1.082791 -0.180763
v 0.459507 1.078516 -0.170210
v 0.480329 1.073129 -0.166079
v 0.501227 1.067157 -0.168774
v 0.520155 1.061186 -0.178032
v 0.535260 1.055799 -0.192947
v 0.545064 1.051523 -0.212059
v 0.548608 1.048779 -0.233496
v 0.545543 1.047833 -0.255161
v 0.536171 1.048779 -0.274932
v 0.521408 1.051523 -0.290875
v 0.502700 1.055799 -0.301428
v 0.481878 1.061186 -0.305560
v 0.460980 1.067157 -0.302864
v 0.442052 1.073129 -0.293606
v 0.426946 1.078516 -0.278691
v 0.417142 1.082791 -0.259580
v 0.413599 1.085536 -0.238142
v 0.182322 -0.018931 -0.146140
vn -0.9352 0.2161 0.2807
vn -0.2644 -0.9611 0.0794
vn -0.8015 0.2026 0.5626
vn -0.5910 0.1635 0.7899
vn -0.3243 0.1025 0.9404
vn -0.0274 0.0257 0.9993
vn 0.2706 -0.0594 0.9609
vn 0.5405 -0.1446 0.8289
vn 0.7558 -0.2214 0.6162
vn 0.8956 -0.2823 0.3437
vn 0.9462 -0.3215 0.0380
vn 0.9025 -0.3350 -0.2709
vn 0.7688 -0.3215 -0.5528
vn 0.5583 -0.2823 -0.7801
vn 0.2916 -0.2214 -0.9306
vn -0.0053 -0.1446 -0.9895
vn -0.3033 -0.0594 -0.9510
vn -0.5732 0.0257 -0.8190
vn -0.7885 0.1025 -0.6064
vn -0.9283 0.1635 -0.3339
vn 0.2644 0.9611 -0.0794
vn -0.9789 0.2026 -0.0282
vt 0.250000 0.490000
vt 0.250000 0.250000
vt 0.324164 0.478254
vt 0.391068 0.444164
vt 0.444164 0.391068
vt 0.478254 0.324164
vt 0.490000 0.250000
vt 0.478254 0.175836
vt 0.444164 0.108932
vt 0.391068 0.055836
vt 0.324164 0.021746
vt 0.250000 0.010000
vt 0.175836 0.021746
vt 0.108932 0.055836
vt 0.055836 0.108932
vt 0.021746 0.175836
vt 0.010000 0.250000
vt 0.021746 0.324164
vt 0.055836 0.391068
vt 0.108932 0.444164
vt 0.750000 0.490000
vt 0.824164 0.478254
vt 0.891068 0.444164
vt 0.944164 0.391068
vt 0.978254 0.324164
vt 0.990000 0.250000
vt 0.978254 0.175836
vt 0.944164 0.108932
vt 0.891068 0.055836
vt 0.824164 0.021746
vt 0.750000 0.010000
vt 0.675836 0.021746
vt 0.608932 0.055836
vt 0.555836 0.108932
vt 0.521746 0.175836
vt 0.510000 0.250000
vt 0.521746 0.324164
vt 0.555836 0.391068
vt 0.608932 0.444164
vt 0.675836 0.478254
vt 0.175836 0.478254
s 1
f 43/83/45 63/84/46 44/85/47
f 44/85/47 63/84/46 45/86/48
f 45/86/48 63/84/46 46/87/49
f 46/87/49 63/84/46 47/88/50
f 47/88/50 63/84/46 48/89/51
f 48/89/51 63/84/46 49/90/52
f 49/90/52 63/84/46 50/91/53
f 50/91/53 63/84/46 51/92/54
f 51/92/54 63/84/46 52/93/55
f 52/93/55 63/84/46 53/94/56
f 53/94/56 63/84/46 54/95/57
f 54/95/57 63/84/46 55/96/58
f 55/96/58 63/84/46 56/97/59
f 56/97/59 63/84/46 57/98/60
f 57/98/60 63/84/46 58/99/61
f 58/99/61 63/84/46 59/100/62
f 59/100/62 63/84/46 60/101/63
f 60/101/63 63/84/46 61/102/64
f 43/103/65 44/104/65 45/105/65 46/106/65 47/107/65 48/108/65 49/109/65 50/110/65 51/111/65 52/112/65 53/113/65 54/114/65 55/115/65 56/116/65 57/117/65 58/118/65 59/119/65 60/120/65 61/121/65 62/122/65
f 61/102/64 63/84/46 62/123/66
f 62/123/66 63/84/46 43/83/45
