# Blender 4.1.1
# www.blender.org
o Sphere.002
v -0.182824 -0.357843 0.775804
v 0.450406 -0.102661 0.775804
v 0.450406 0.036086 0.931121
v -0.915291 -0.253880 0.775804
v -0.182824 -0.219096 0.931121
v 0.450406 0.236581 1.017316
v 0.450406 0.459114 1.017316
v -0.201025 -0.209284 0.939477
v 0.450406 0.798356 0.775804
v -0.915291 -0.115133 0.931121
v 0.620027 -0.102661 0.702882
v -0.201025 -0.055164 1.090461
v -0.915291 0.085362 1.017315
v 0.756052 0.036086 0.799721
v -0.013203 -0.357843 0.702882
v 0.831541 0.236581 0.853462
v 0.831541 0.459114 0.853462
v -0.272610 0.996831 0.775804
v -0.201025 0.167546 1.174251
v 0.756052 0.659609 0.799721
v 0.620027 0.798356 0.702882
v 0.122823 -0.219096 0.799721
v -0.915291 0.307895 1.017315
v 0.661920 -0.102661 0.539029
v -0.201025 0.414735 1.174251
v 0.831541 0.036086 0.504468
v -0.915291 0.647137 0.775804
v 0.925673 0.236581 0.485288
v -0.201025 0.791564 0.939477
v 0.925673 0.459114 0.485288
v 0.831541 0.659609 0.504468
v 0.028690 -0.357843 0.539029
v 0.033036 0.858084 0.799721
v 0.661920 0.798356 0.539029
v 0.544538 -0.102661 0.407629
v -0.745670 -0.253880 0.702882
v 0.198311 -0.219096 0.504468
v -0.102989 0.996831 0.702882
v 0.544538 0.798356 0.407629
v 0.001480 -0.209284 0.868589
v -0.609645 -0.115133 0.799721
v 0.450406 0.847874 0.582127
v 0.163876 -0.055164 0.962727
v 0.450406 -0.152179 0.582126
v 0.356274 -0.102661 0.407629
v -0.088691 -0.357843 0.407629
v 0.253999 0.167546 1.014969
v 0.356274 0.798356 0.407629
v 0.253999 0.414735 1.014969
v 0.108525 0.858084 0.504468
v 0.163876 0.637444 0.962727
v -0.061096 0.996831 0.539029
v -0.182824 -0.407361 0.582126
v 0.238892 0.798356 0.539029
v 0.001480 0.791564 0.868589
v 0.280785 -0.102661 0.702882
v -0.276956 -0.357843 0.407629
v -0.745670 0.647137 0.702882
v 0.280785 0.798356 0.702882
v 0.450406 0.659609 0.931121
v -0.703777 -0.253880 0.539029
v -0.394338 -0.357843 0.539029
v -0.563958 -0.219096 0.504468
v -0.178478 0.996831 0.407629
v -0.272610 1.046349 0.582127
v -0.352445 -0.357843 0.702882
v -0.488470 -0.219096 0.799721
v -0.821159 -0.253880 0.407629
v -0.366743 0.996831 0.407629
v -0.747877 0.657589 0.485288
v -0.653745 0.858084 0.504468
v -0.484124 0.996831 0.539029
v -0.821159 0.647137 0.407629
v -0.653745 0.657589 0.853462
v -0.915291 0.696655 0.582126
v -0.578256 0.858084 0.799721
v -0.915291 -0.303398 0.582126
v -0.442231 0.996831 0.702882
v -0.272610 0.858084 0.931121
v -1.009424 -0.253880 0.407629
v -1.009424 0.647137 0.407629
v -1.126805 -0.253880 0.539029
v -1.296426 -0.115133 0.504468
v -1.390558 0.085362 0.485288
v -1.390558 0.307895 0.485288
v -1.296426 0.508390 0.504468
v -1.126805 0.647137 0.539029
v -1.084912 -0.253880 0.702882
v -0.403529 -0.209284 0.868589
v -1.220937 -0.115133 0.799721
v -0.565925 -0.055164 0.962727
v -1.296426 0.085362 0.853462
v -0.656048 0.167546 1.014969
v -1.296426 0.307895 0.853462
v -0.656048 0.414735 1.014969
v -1.220937 0.508390 0.799721
v -0.565925 0.637444 0.962727
v -1.084912 0.647137 0.702882
v -0.201025 0.637444 1.090461
v -0.915291 0.508390 0.931121
v -0.651597 0.085362 0.903951
v -0.686232 0.167546 0.918841
v -0.686232 0.307895 0.918841
v -0.698940 0.414735 0.878373
v -0.670609 0.508390 0.825930
v -0.593186 -0.071418 0.811438
v -0.609089 -0.055164 0.825263
v -0.580169 -0.112913 0.688299
v -0.667933 0.532340 0.797969
v -0.680356 0.580516 0.749381
v -0.718957 0.647137 0.598401
v -0.732634 0.653892 0.544909
v -0.746310 0.647137 0.491416
v -0.649584 0.508390 0.375255
v -0.747877 0.644432 0.485288
v -0.028431 0.799689 0.851251
v -0.201025 0.795084 0.927430
v 0.077547 0.739864 0.831409
v 0.011174 0.791564 0.837717
v 0.106857 0.749430 0.700122
v -0.591883 0.637444 0.880057
v -0.562878 0.657589 0.892527
v -0.461452 0.736593 0.902166
v -0.653745 0.525573 0.853462
v -0.214530 0.791564 0.934749
v -0.272610 0.709163 0.995144
v -0.572191 -0.115133 0.653232
v -0.587873 -0.159072 0.515413
v -0.572191 -0.105331 0.670293
v -0.539438 0.238599 0.374001
v -0.594871 -0.153255 0.498169
v -0.577905 -0.115133 0.455494
v -0.577905 -0.018601 0.395525
v -0.154849 -0.209284 0.923313
v -0.182824 -0.205220 0.937086
v -0.185688 -0.209284 0.934108
v -0.201025 -0.213280 0.925796
v -0.012502 -0.213082 0.860484
v 0.006012 -0.209284 0.854157
v 0.211158 -0.087769 0.682817
v 0.176525 -0.076465 0.837952
v -0.554388 -0.132535 0.692576
v -0.372018 -0.217843 0.850323
v -0.413742 -0.209284 0.836066
v -0.524709 -0.122848 0.825520
v 0.165618 0.680885 0.784872
v 0.167409 0.703345 0.690076
v 0.204062 0.637444 0.834745
v 0.182376 0.659609 0.815893
v 0.276710 0.236581 0.942642
v 0.284920 0.167546 0.916493
v 0.276710 0.414735 0.942642
v 0.235706 -0.069086 0.678745
v 0.234958 -0.055164 0.736350
v 0.234629 -0.055581 0.735741
v 0.258007 0.459114 0.934602
v 0.245154 0.036086 0.842882
v 0.226443 -0.064414 0.663687
v 0.144559 0.691822 0.652935
v 0.159364 0.733303 0.522825
v 0.172068 0.722742 0.491521
v 0.143971 0.657589 0.419592
v 0.143971 0.659609 0.420847
v 0.079279 0.400389 0.368711
v 0.259841 -0.088042 0.491931
v 0.242256 -0.102661 0.535264
v 0.240093 -0.102661 0.543725
v 0.240969 -0.103147 0.539452
v 0.189424 0.036086 0.369965
v 0.228937 -0.018601 0.414197
v -0.546018 0.214886 0.366635
v -0.546018 0.262313 0.366635
v -0.799044 -0.213234 0.366635
v -0.657284 -0.115133 0.366635
v -0.657284 0.508390 0.366635
v -0.641883 0.480638 0.366635
v -0.552097 0.074408 0.366635
v -0.799044 0.606491 0.366635
v -1.031538 0.606491 0.366635
v -1.031538 -0.213234 0.366635
v -1.284564 0.307895 0.366635
v -1.173298 0.508390 0.366635
v -1.173298 -0.115133 0.366635
v -1.284564 0.085362 0.366635
v 0.096663 0.487098 0.366635
v 0.096663 0.657589 0.366635
v -0.014603 0.858084 0.366635
v 0.081133 0.407072 0.366635
v 0.077424 0.400389 0.366635
v -0.156363 0.956185 0.366635
v -0.388857 0.956185 0.366635
v -0.641883 0.657589 0.366635
v -0.530617 0.858084 0.366635
v -0.532858 0.238599 0.366635
v 0.186449 -0.018601 0.366635
v 0.186449 0.046808 0.366635
v 0.075183 -0.219096 0.366635
v -0.066577 -0.317197 0.366635
v 0.081133 0.393706 0.366635
v -0.299071 -0.317197 0.366635
v -0.552097 -0.018601 0.366635
v -0.440830 -0.219096 0.366635
v 0.819679 0.236581 0.366635
v 0.819679 0.459114 0.366635
v 0.708413 0.036086 0.366635
v 0.566653 -0.062015 0.366635
v 0.708413 0.659609 0.366635
v 0.566653 0.757710 0.366635
v 0.467272 0.757710 0.366635
v 0.334159 0.757710 0.366635
v 0.334159 -0.062015 0.366635
v 0.192399 0.659609 0.366635
v 0.192399 0.036086 0.366635
vn 0.3950 -0.0000 0.9187
vn 0.2753 -0.7169 0.6405
vn 0.1059 0.9634 0.2463
vn 0.3673 0.3673 0.8545
vn 0.3673 -0.3673 0.8545
vn 0.1059 -0.9634 0.2463
vn 0.2753 0.7169 0.6405
vn 0.6444 0.7467 0.1648
vn 0.6444 -0.7467 0.1648
vn 0.2393 0.9690 0.0612
vn 0.8897 -0.3959 0.2275
vn 0.2393 -0.9690 0.0612
vn 0.7458 -0.0000 -0.6662
vn 0.5073 -0.7330 -0.4532
vn 0.1914 0.9665 -0.1710
vn 0.6891 0.3824 -0.6156
vn 0.6891 -0.3824 -0.6156
vn 0.1914 -0.9665 -0.1710
vn 0.5073 0.7330 -0.4532
vn -0.0000 0.9620 -0.2730
vn -0.0000 -0.9620 -0.2730
vn -0.0000 0.7101 -0.7041
vn -0.0000 -0.7101 -0.7041
vn -0.1914 0.9665 -0.1710
vn -0.6891 0.3824 -0.6156
vn -0.6891 -0.3824 -0.6156
vn -0.1914 -0.9665 -0.1710
vn -0.5073 0.7330 -0.4532
vn -0.7458 -0.0000 -0.6662
vn -0.5073 -0.7330 -0.4532
vn -0.8897 -0.3959 0.2275
vn -0.2393 -0.9690 0.0612
vn -0.6444 0.7467 0.1648
vn -0.9688 -0.0000 0.2477
vn -0.6444 -0.7467 0.1648
vn -0.2393 0.9690 0.0612
vn -0.8897 0.3959 0.2275
vn -0.2753 0.7169 0.6405
vn -0.3950 -0.0000 0.9187
vn -0.2753 -0.7169 0.6405
vn -0.1059 0.9634 0.2463
vn -0.3673 0.3673 0.8545
vn -0.3673 -0.3673 0.8545
vn -0.1059 -0.9634 0.2463
vn 0.3304 -0.0000 0.9438
vn 0.2426 -0.6789 0.6930
vn 0.0977 0.9553 0.2791
vn 0.3113 0.3346 0.8894
vn 0.3113 -0.3346 0.8894
vn 0.0977 -0.9553 0.2791
vn 0.2426 0.6789 0.6930
vn 0.6143 0.7651 0.1929
vn 0.9541 -0.0000 0.2996
vn 0.6143 -0.7651 0.1929
vn 0.2234 0.9722 0.0701
vn 0.8680 0.4152 0.2725
vn 0.8680 -0.4152 0.2725
vn 0.2234 -0.9722 0.0701
vn 0.4655 -0.7229 -0.5106
vn 0.4655 0.7229 -0.5106
vn -0.4655 -0.7229 -0.5107
vn -0.8680 -0.4152 0.2725
vn -0.2234 -0.9722 0.0701
vn -0.6143 0.7651 0.1929
vn -0.9541 -0.0000 0.2996
vn -0.6143 -0.7651 0.1929
vn -0.8680 0.4152 0.2725
vn -0.2426 0.6789 0.6930
vn -0.3304 -0.0000 0.9438
vn -0.2426 -0.6789 0.6930
vn -0.0977 0.9553 0.2791
vn -0.3113 0.3346 0.8894
vn -0.3113 -0.3346 0.8894
vn -0.0977 -0.9553 0.2791
vn 0.8897 0.3959 0.2275
vn 0.9688 -0.0000 0.2477
vn -0.0000 -0.0000 -1.0000
vt 0.628430 0.518670
vt 0.628430 0.428571
vt 0.714286 0.428571
vt 0.714286 0.571429
vt 0.615448 0.571429
vt 0.714286 0.714286
vt 0.714286 0.857143
vt 0.571429 0.857143
vt 0.571429 0.714286
vt 0.714286 0.142857
vt 0.571429 0.142857
vt 0.642857 0.000000
vt 0.623474 0.352446
vt 0.599923 0.285714
vt 0.714286 0.285714
vt 0.628430 0.428571
vt 0.580697 0.671556
vt 0.615448 0.571429
vt 0.571429 0.683138
vt 0.642857 1.000000
vt 0.571429 0.211452
vt 0.599923 0.285714
vt 0.587698 0.261055
vt 0.571429 0.211452
vt 0.480336 0.142857
vt 0.428571 0.759527
vt 0.500550 0.714286
vt 0.428571 0.857143
vt 0.438316 0.123367
vt 0.500000 0.000000
vt 0.508776 0.707302
vt 0.517398 0.712704
vt 0.500000 1.000000
vt 0.371162 0.488280
vt 0.371162 0.457833
vt 0.374726 0.473056
vt 0.345410 0.714286
vt 0.399023 0.714286
vt 0.417497 0.753537
vt 0.428571 0.759527
vt 0.285714 0.857143
vt 0.285714 0.815293
vt 0.357143 0.000000
vt 0.418827 0.123367
vt 0.376807 0.142857
vt 0.285714 0.142857
vt 0.345410 0.285714
vt 0.350611 0.285714
vt 0.349786 0.305488
vt 0.370098 0.579233
vt 0.375041 0.645505
vt 0.357143 1.000000
vt 0.371906 0.145642
vt 0.350611 0.285714
vt 0.345410 0.285714
vt 0.285714 0.184707
vt 0.214286 0.000000
vt 0.142857 0.142857
vt 0.214286 1.000000
vt 0.142857 0.857143
vt 0.142857 0.184707
vt 0.285714 0.184707
vt 0.142857 0.815293
vt 0.071429 0.000000
vt 0.000000 0.142857
vt 0.057410 0.428571
vt 0.000000 0.428571
vt 0.000000 0.285714
vt 0.083161 0.285714
vt 0.083161 0.714286
vt 0.000000 0.714286
vt 0.000000 0.571429
vt 0.057410 0.571429
vt 0.071429 1.000000
vt 0.000000 0.857143
vt 0.057410 0.571429
vt 0.057410 0.428571
vt 1.000000 0.571429
vt 1.000000 0.714286
vt 0.857143 0.714286
vt 0.857143 0.571429
vt 1.000000 0.857143
vt 0.928571 1.000000
vt 0.857143 0.857143
vt 1.000000 0.142857
vt 1.000000 0.285714
vt 0.857143 0.285714
vt 0.857143 0.142857
vt 1.000000 0.428571
vt 0.857143 0.428571
vt 0.928571 0.000000
vt 0.785714 0.000000
vt 0.785714 1.000000
vt 0.571429 0.571429
vt 0.571429 0.428571
vt 0.702284 0.853376
vt 0.681711 0.857143
vt 0.703466 0.857143
vt 0.581979 0.121757
vt 0.709715 0.133717
vt 0.571429 0.285714
vt 0.576361 0.867007
vt 0.681711 0.857143
vt 0.709096 0.867523
vt 0.703466 0.857143
vt 0.523171 0.190780
vt 0.543740 0.142857
vt 0.507728 0.285714
vt 0.500440 0.265170
vt 0.484944 0.245449
vt 0.428571 0.224629
vt 0.428571 0.181912
vt 0.542559 0.531531
vt 0.542559 0.428571
vt 0.532122 0.571429
vt 0.458434 0.714673
vt 0.458754 0.714286
vt 0.558485 0.857143
vt 0.511746 0.734030
vt 0.428571 0.744508
vt 0.428571 0.727190
vt 0.560878 0.121757
vt 0.507728 0.285714
vt 0.542559 0.428571
vt 0.542083 0.400105
vt 0.507528 0.655753
vt 0.458754 0.714286
vt 0.566497 0.867007
vt 0.428571 0.744508
vt 0.419858 0.722860
vt 0.428571 0.727190
vt 0.428571 0.181912
vt 0.428571 0.224629
vt 0.405811 0.235311
vt 0.000000 0.767815
vt 0.010149 0.760787
vt 0.000000 0.786003
vt 0.896773 0.624145
vt 0.925563 0.714286
vt 0.895512 0.571429
vt 0.868257 0.879372
vt 0.886313 0.857143
vt 0.857143 0.193811
vt 0.888418 0.267042
vt 0.898290 0.285714
vt 0.895512 0.490317
vt 0.911665 0.428571
vt 0.917704 0.777023
vt 0.886313 0.857143
vt 0.931148 0.729352
vt 1.000000 0.767815
vt 1.000000 0.786003
vt 0.917662 0.357474
vt 0.942224 0.353134
vt 0.930017 0.368496
vt 0.911665 0.428571
vt 0.749725 0.219237
vt 0.723813 0.142857
vt 0.718856 0.133717
vt 0.719476 0.867523
vt 0.846028 0.879372
vt 0.591272 0.333111
vt 0.571429 0.369949
vt 0.714286 0.391824
vt 0.689628 0.333111
vt 0.683672 0.330603
vt 0.607403 0.327322
vt 0.428571 0.285714
vt 0.428571 0.142857
vt 0.441396 0.374623
vt 0.428571 0.382148
vt 0.571429 0.369949
vt 0.516577 0.363133
vt 0.495353 0.404180
vt 0.371162 0.538020
vt 0.371162 0.428571
vt 0.396785 0.428571
vt 0.345410 0.285714
vt 0.397215 0.427132
vt 0.396785 0.428571
vt 0.371162 0.428571
vt 0.368169 0.591368
vt 0.368458 0.596130
vt 0.367417 0.596130
vt 0.285714 0.184707
vt 0.142857 0.184707
vt 0.285714 0.184707
vt 0.057410 0.428571
vt 0.083161 0.285714
vt 0.082513 0.711408
vt 0.078090 0.711408
vt 0.078855 0.694512
vt 0.083161 0.285714
vt 0.057410 0.542167
vt 0.053239 0.524351
vt 0.000000 0.437017
vt 0.057410 0.428571
vt 0.897528 0.478049
vt 0.878675 0.508976
vt 0.857143 0.513320
vt 1.000000 0.437017
vt 0.997622 0.435281
vt 0.976866 0.430944
vt 0.956110 0.435281
vt 0.833956 0.441503
vt 0.823084 0.428571
vt 0.857143 0.513320
vt 0.791072 0.372279
vt 0.714286 0.391824
vt 0.823084 0.428571
vt 0.701632 0.707294
vt 0.714286 0.704399
vt 0.571429 0.612658
vt 0.627004 0.707294
vt 0.635241 0.710000
vt 0.428571 0.714286
vt 0.449946 0.631323
vt 0.499387 0.604072
vt 0.508084 0.620712
vt 0.428571 0.620907
vt 0.446362 0.631323
vt 0.448124 0.631669
vt 0.371162 0.529439
vt 0.372773 0.536322
vt 0.394174 0.571429
vt 0.371162 0.571429
vt 0.345410 0.714286
vt 0.285714 0.815293
vt 0.346113 0.288592
vt 0.347361 0.288592
vt 0.347197 0.293353
vt 0.394174 0.571429
vt 0.428571 0.620907
vt 0.371162 0.571429
vt 0.285714 0.815293
vt 0.142857 0.815293
vt 0.058554 0.420767
vt 0.057467 0.403870
vt 0.061142 0.403870
vt 0.083161 0.714286
vt 0.000000 0.667373
vt 0.020731 0.640210
vt 0.043431 0.571429
vt 0.057410 0.571429
vt 0.057410 0.571429
vt 0.043431 0.571429
vt 0.057410 0.511720
vt 0.913999 0.652609
vt 0.924995 0.633226
vt 0.931947 0.640210
vt 0.992747 0.671517
vt 1.000000 0.667373
vt 0.857143 0.645707
vt 0.821096 0.707294
vt 0.715512 0.707294
vt 0.722553 0.710142
vt 0.802589 0.713393
vt 0.428571 0.571429
vt 0.428571 0.428571
vt 0.371162 0.571429
vt 0.345410 0.714286
vt 0.285714 0.815293
vt 0.345410 0.285714
vt 0.371162 0.428571
vt 0.371162 0.571429
vt 0.345410 0.285714
vt 0.285714 0.184707
vt 0.225218 0.184707
vt 0.142857 0.184707
vt 0.285714 0.184707
vt 0.142857 0.815293
vt 0.060111 0.408632
vt 0.050944 0.287154
vt 0.050452 0.285714
vt 0.083161 0.285714
vt 0.083161 0.714286
vt 0.081152 0.714286
vt 0.081413 0.706646
vt 0.004094 0.857143
vt 0.000701 0.858545
vt 0.083161 0.285714
vt 0.021221 0.220711
vt 0.000000 0.209837
vt 0.142857 0.184707
vt 0.057410 0.470561
vt 0.056405 0.466271
vt 0.057410 0.461980
vt 0.004094 0.857143
vt 0.042465 0.842091
vt 0.076086 0.770593
vt 0.081152 0.714286
vt 0.083161 0.714286
vt 0.999299 0.858545
vt 0.995906 0.857143
vt 0.901615 0.240682
vt 0.857143 0.263808
vt 1.000000 0.209837
vt 0.924232 0.252547
vt 0.902927 0.817763
vt 0.995906 0.857143
vt 0.857143 0.808669
vt 0.890175 0.822574
vt 0.857143 0.263808
vt 0.839561 0.285714
vt 0.779391 0.457061
vt 0.779391 0.571429
vt 0.786401 0.428571
vt 0.856701 0.808239
vt 0.810219 0.714286
vt 0.826728 0.301507
vt 0.839561 0.285714
vt 0.780851 0.620618
vt 0.779391 0.571429
vt 0.503114 0.858423
vt 0.502654 0.858661
vt 0.505457 0.858661
vt 0.514048 0.863122
vt 0.518251 0.868804
vt 0.518251 0.878124
vt 0.514048 0.883807
vt 0.505457 0.888267
vt 0.501471 0.888267
vt 0.495452 0.888023
vt 0.494436 0.887496
vt 0.493420 0.888023
vt 0.484065 0.891866
vt 0.476483 0.891866
vt 0.467892 0.887406
vt 0.463688 0.881723
vt 0.463688 0.872403
vt 0.467892 0.866721
vt 0.476483 0.862261
vt 0.483788 0.862261
vt 0.487217 0.862883
vt 0.487504 0.863032
vt 0.487790 0.862883
vt 0.472193 0.847404
vt 0.472193 0.843421
vt 0.476396 0.837738
vt 0.484987 0.833278
vt 0.494523 0.833278
vt 0.503114 0.837738
vt 0.507317 0.843421
vt 0.507317 0.852740
vt 0.509593 0.892483
vt 0.513797 0.898166
vt 0.513797 0.907486
vt 0.509593 0.913168
vt 0.501002 0.917629
vt 0.491467 0.917629
vt 0.482876 0.913168
vt 0.478672 0.907486
vt 0.478672 0.898166
vt 0.482876 0.892483
vt 0.476396 0.858423
vt 0.472193 0.852740
s 0
f 102/1/1 103/2/1 23/3/1 13/4/1 101/5/1
f 10/6/2 4/7/2 36/8/2 41/9/2
f 27/10/3 58/11/3 75/12/3
f 104/13/4 105/14/4 100/15/4 23/3/4 103/16/4
f 107/17/5 101/18/5 13/4/5 10/6/5 41/9/5 106/19/5
f 4/7/6 77/20/6 36/8/6
f 110/21/7 58/11/7 27/10/7 100/15/7 105/22/7 109/23/7
f 58/11/8 110/24/8 111/25/8
f 128/26/9 127/27/9 41/9/9 36/8/9 61/28/9
f 112/29/10 75/30/10 58/11/10 111/25/10
f 127/27/11 129/31/11 108/32/11 106/19/11 41/9/11
f 36/8/12 77/33/12 61/28/12
f 171/34/13 172/35/13 130/36/13
f 174/37/14 132/38/14 131/39/14 128/40/14 61/28/14 68/41/14 173/42/14
f 75/43/15 112/44/15 113/45/15 73/46/15
f 175/47/16 114/48/16 176/49/16
f 177/50/17 133/51/17 132/38/17 174/37/17
f 61/28/18 77/52/18 68/41/18
f 73/46/19 113/45/19 115/53/19 114/54/19 175/55/19 178/56/19
f 75/57/20 73/46/20 81/58/20
f 68/41/21 77/59/21 80/60/21
f 179/61/22 81/58/22 73/46/22 178/62/22
f 173/42/23 68/41/23 80/60/23 180/63/23
f 75/64/24 81/58/24 87/65/24
f 181/66/25 85/67/25 86/68/25 182/69/25
f 183/70/26 83/71/26 84/72/26 184/73/26
f 80/60/27 77/74/27 82/75/27
f 81/58/28 179/61/28 182/69/28 86/68/28 87/65/28
f 184/76/29 84/72/29 85/67/29 181/77/29
f 180/63/30 80/60/30 82/75/30 83/71/30 183/70/30
f 84/78/31 83/79/31 90/80/31 92/81/31
f 82/82/32 77/83/32 88/84/32
f 87/85/33 86/86/33 96/87/33 98/88/33
f 85/89/34 84/78/34 92/81/34 94/90/34
f 83/79/35 82/82/35 88/84/35 90/80/35
f 75/91/36 87/85/36 98/88/36
f 86/86/37 85/89/37 94/90/37 96/87/37
f 98/88/38 96/87/38 100/15/38 27/10/38
f 94/90/39 92/81/39 13/4/39 23/3/39
f 90/80/40 88/84/40 4/7/40 10/6/40
f 75/92/41 98/88/41 27/10/41
f 96/87/42 94/90/42 23/3/42 100/15/42
f 92/81/43 90/80/43 10/6/43 13/4/43
f 88/84/44 77/93/44 4/7/44
f 25/3/45 19/4/45 47/94/45 49/95/45
f 135/96/46 134/97/46 40/8/46 43/9/46 12/6/46 8/7/46 136/98/46
f 29/10/47 55/11/47 116/99/47 117/100/47
f 99/15/48 25/3/48 49/95/48 51/101/48
f 19/4/49 12/6/49 43/9/49 47/94/49
f 138/102/50 40/8/50 134/103/50
f 8/7/50 137/104/50 136/105/50
f 29/10/51 99/15/51 51/101/51 55/11/51
f 118/106/52 119/107/52 55/11/52 51/101/52 148/108/52 149/109/52 146/110/52 147/111/52 120/112/52
f 150/113/53 152/114/53 49/95/53 47/94/53 151/115/53
f 155/116/54 154/117/54 43/9/54 40/8/54 139/118/54 141/119/54 140/120/54 153/121/54
f 119/107/55 116/122/55 55/11/55
f 148/123/56 51/101/56 49/95/56 152/124/56 156/125/56
f 157/126/57 151/115/57 47/94/57 43/9/57 154/127/57
f 139/118/58 40/8/58 138/128/58
f 140/129/59 158/130/59 153/131/59
f 120/132/60 147/133/60 159/134/60
f 108/135/61 129/136/61 142/137/61
f 101/138/62 107/139/62 91/80/62 93/81/62 102/140/62
f 143/141/63 89/84/63 144/142/63
f 97/87/64 123/143/64 122/144/64 121/145/64
f 103/146/65 102/140/65 93/81/65 95/90/65 104/147/65
f 145/148/66 144/149/66 89/84/66 91/80/66 107/139/66 106/150/66 108/151/66 142/152/66
f 124/153/67 109/154/67 105/155/67 104/156/67 95/90/67 97/87/67 121/145/67
f 126/157/68 123/143/68 97/87/68 99/15/68 29/10/68 125/158/68
f 95/90/69 93/81/69 19/4/69 25/3/69
f 91/80/70 89/84/70 8/7/70 12/6/70
f 117/159/71 125/158/71 29/10/71
f 97/87/72 95/90/72 25/3/72 99/15/72
f 93/81/73 91/80/73 12/6/73 19/4/73
f 137/160/74 8/7/74 89/84/74 143/161/74
f 65/12/3 18/10/3 38/11/3
f 119/162/4 118/163/4 33/101/4 79/15/4 126/164/4 125/165/4 117/166/4 116/167/4
f 18/10/7 79/15/7 33/101/7 38/11/7
f 38/11/8 33/101/8 50/168/8 52/169/8
f 65/30/10 38/11/10 52/169/10
f 160/170/75 161/171/75 50/168/75 33/101/75 118/172/75 120/173/75 159/174/75
f 185/175/13 186/176/13 162/177/13
f 65/43/15 52/169/15 64/46/15
f 187/178/16 50/168/16 161/171/16 163/179/16 162/180/16 186/181/16
f 188/182/17 164/183/17 189/184/17
f 64/46/19 52/169/19 50/168/19 187/178/19 190/185/19
f 65/57/20 64/46/20 69/58/20
f 191/186/22 69/58/22 64/46/22 190/187/22
f 65/64/24 69/58/24 72/65/24
f 192/188/25 70/67/25 71/68/25 193/189/25
f 194/190/26 130/191/26 172/192/26
f 69/58/28 191/186/28 193/193/28 71/68/28 72/65/28
f 176/194/29 114/195/29 115/196/29 70/67/29 192/197/29
f 72/85/33 71/86/33 76/87/33 78/88/33
f 110/198/34 109/199/34 124/200/34 74/90/34 70/89/34 115/201/34 113/202/34 112/203/34 111/204/34
f 65/91/36 72/85/36 78/88/36
f 71/86/37 70/89/37 74/90/37 76/87/37
f 78/88/38 76/87/38 79/15/38 18/10/38
f 121/205/39 122/206/39 74/90/39 124/207/39
f 65/92/41 78/88/41 18/10/41
f 123/208/42 126/209/42 79/15/42 76/87/42 74/90/42 122/210/42
f 5/6/2 1/7/2 15/8/2 22/9/2
f 134/211/5 135/212/5 5/6/5 22/9/5 141/213/5 139/214/5 138/215/5
f 1/7/6 53/20/6 15/8/6
f 22/9/9 15/8/9 32/28/9 37/216/9
f 167/217/11 158/218/11 140/219/11 141/213/11 22/9/11 37/216/11 165/220/11 166/221/11 168/222/11
f 15/8/12 53/33/12 32/28/12
f 196/223/13 169/224/13 170/225/13 195/226/13
f 197/227/14 37/216/14 32/28/14 46/41/14 198/228/14
f 189/229/16 164/230/16 199/231/16
f 170/232/17 165/233/17 37/216/17 197/227/17 195/234/17
f 32/28/18 53/52/18 46/41/18
f 46/41/21 53/59/21 57/60/21
f 198/235/23 46/41/23 57/60/23 200/236/23
f 171/237/25 130/238/25 194/239/25
f 202/240/26 63/71/26 131/241/26 132/242/26 133/243/26 201/244/26
f 57/60/27 53/74/27 62/75/27
f 201/245/29 133/246/29 177/247/29
f 200/236/30 57/60/30 62/75/30 63/71/30 202/240/30
f 142/248/31 129/249/31 127/250/31 128/251/31 131/252/31 63/79/31 67/80/31 145/253/31
f 62/82/32 53/83/32 66/84/32
f 63/79/35 62/82/35 66/84/35 67/80/35
f 67/80/40 66/84/40 1/7/40 5/6/40
f 144/254/43 145/253/43 67/80/43 5/6/43 135/212/43 136/255/43 137/256/43 143/257/43
f 66/84/44 53/93/44 1/7/44
f 7/3/1 6/4/1 16/94/1 17/95/1
f 3/6/2 2/7/2 11/8/2 14/9/2
f 42/12/3 9/10/3 21/11/3
f 60/15/4 7/3/4 17/95/4 20/101/4
f 6/4/5 3/6/5 14/9/5 16/94/5
f 2/7/6 44/20/6 11/8/6
f 9/10/7 60/15/7 20/101/7 21/11/7
f 21/11/8 20/101/8 31/168/8 34/169/8
f 17/95/76 16/94/76 28/258/76 30/259/76
f 14/9/9 11/8/9 24/28/9 26/216/9
f 42/30/10 21/11/10 34/169/10
f 20/101/75 17/95/75 30/259/75 31/168/75
f 16/94/11 14/9/11 26/216/11 28/258/11
f 11/8/12 44/33/12 24/28/12
f 204/176/13 30/259/13 28/258/13 203/260/13
f 205/261/14 26/216/14 24/28/14 35/41/14 206/262/14
f 42/43/15 34/169/15 39/46/15
f 207/263/16 31/168/16 30/259/16 204/264/16
f 203/265/17 28/258/17 26/216/17 205/261/17
f 24/28/18 44/52/18 35/41/18
f 39/46/19 34/169/19 31/168/19 207/266/19 208/267/19
f 42/57/20 39/46/20 48/58/20
f 35/41/21 44/59/21 45/60/21
f 209/268/22 210/269/22 48/58/22 39/46/22 208/270/22
f 206/262/23 35/41/23 45/60/23 211/271/23
f 42/64/24 48/58/24 54/65/24
f 185/272/25 162/273/25 163/274/25 212/275/25
f 213/276/26 169/277/26 196/278/26
f 166/279/27 45/60/27 44/74/27 168/280/27
f 212/281/28 163/274/28 161/282/28 160/283/28 54/65/28 48/58/28 210/284/28
f 199/285/29 164/286/29 188/287/29
f 211/271/30 45/60/30 166/288/30 165/289/30 170/290/30 169/291/30 213/292/30
f 168/293/32 44/83/32 56/84/32 167/294/32
f 147/295/33 146/296/33 59/88/33 54/85/33 160/297/33 159/298/33
f 158/299/35 167/300/35 56/84/35 155/301/35 153/302/35
f 42/91/36 54/85/36 59/88/36
f 146/303/38 149/304/38 60/15/38 9/10/38 59/88/38
f 152/305/39 150/306/39 6/4/39 7/3/39 156/307/39
f 154/308/40 155/301/40 56/84/40 2/7/40 3/6/40 157/309/40
f 42/92/41 59/88/41 9/10/41
f 148/310/42 156/307/42 7/3/42 60/15/42 149/311/42
f 151/312/43 157/309/43 3/6/43 6/4/43 150/313/43
f 56/84/44 44/93/44 2/7/44
f 213/314/77 196/315/77 195/316/77 197/317/77 198/318/77 200/319/77 202/320/77 201/321/77 177/322/77 171/323/77 194/324/77 172/325/77 176/326/77 192/327/77 193/328/77 191/329/77 190/330/77 187/331/77 186/332/77 185/333/77 188/334/77 189/335/77 199/336/77 209/337/77 208/338/77 207/339/77 204/340/77 203/341/77 205/342/77 206/343/77 211/344/77
f 174/345/77 173/346/77 180/347/77 183/348/77 184/349/77 181/350/77 182/351/77 179/352/77 178/353/77 175/354/77 176/326/77 172/325/77 171/323/77 177/322/77
f 185/333/77 212/355/77 210/356/77 209/337/77 199/336/77 188/334/77
