# Blender 4.0.2
# www.blender.org
mtllib cloud_1.mtl
o Cloud1
v -0.509972 -0.230961 1.790355
v -0.580430 -0.652618 1.382836
v -0.074903 -0.693108 1.907929
v -0.627771 -0.323110 1.045897
v 0.268337 -0.821419 1.679742
v 0.282149 -0.224065 1.932106
v -0.217359 -0.936446 1.272393
v -0.040536 0.264319 1.714444
v -0.070820 0.329093 0.985629
v -0.485459 -0.760830 0.526510
v -0.794964 -0.612801 0.304792
v -0.480444 -0.798078 -0.482074
v -0.625045 -0.619710 -0.941987
v -0.499868 -0.795389 -1.304013
v -0.191710 -0.876222 -1.520090
v 0.183576 -0.920358 0.482699
v -0.216232 -1.006412 -0.003076
v -1.015442 -0.236895 -0.149248
v -0.911497 0.479551 0.029039
v -0.859256 0.011660 -0.548341
v -0.776843 0.277748 -1.202887
v -0.676016 0.506260 -0.582102
v -0.798655 -0.210354 -1.558152
v -0.774454 0.310321 0.618973
v -0.540502 0.062472 0.919909
v -0.289041 0.835730 0.575843
v -0.455392 0.888368 -0.182330
v -0.336801 0.673706 -1.372386
v -0.426443 0.256053 -1.912170
v 0.142817 1.016536 -0.179563
v -0.121405 0.815368 -0.621132
v 0.185801 0.745503 -1.454169
v 0.378097 -0.802122 1.035953
v 0.630574 -0.535095 1.450369
v 0.322507 0.224797 0.978015
v 0.592170 -0.015472 1.476382
v 0.391518 -0.931147 -0.163089
v 0.212504 -0.871611 -0.910007
v -0.075539 -0.616282 -1.932580
v 0.092848 0.023897 -2.072686
v 0.630692 -0.263231 0.828682
v 0.748013 -0.655936 0.250317
v 0.751592 -0.362569 -0.672149
v 0.587970 -0.666313 -1.472951
v 0.619928 -0.239829 -1.811555
v 1.037575 -0.141278 -0.106480
v 0.862554 -0.039394 -1.316974
v 0.536596 0.597089 0.648579
v 0.483961 0.885516 0.218055
v 0.372562 0.701533 -0.694331
v 0.320573 0.399317 -1.862794
v 0.869492 0.029217 0.533996
v 0.830258 0.630919 -0.083793
v 0.814061 0.125214 -0.688662
v 0.701811 0.351223 -1.415330
vn -0.9879 0.0159 0.1543
vn -0.6820 0.6855 0.2550
vn -0.8755 -0.4779 -0.0708
vn -0.6225 -0.6015 -0.5007
vn -0.9348 0.1003 -0.3406
vn -0.8470 -0.4976 0.1873
vn -0.5756 -0.8168 -0.0378
vn -0.6065 -0.5564 -0.5680
vn -0.5506 -0.6275 -0.5505
vn -0.1716 -0.9777 0.1211
vn -0.9257 -0.1033 0.3640
vn -0.6511 -0.3622 0.6670
vn -0.9139 0.2178 -0.3426
vn -0.9521 -0.2221 -0.2102
vn -0.9297 0.3338 -0.1560
vn -0.9732 -0.1052 0.2043
vn -0.6754 0.6523 0.3440
vn -0.6063 0.7730 0.1867
vn -0.4880 0.8725 -0.0246
vn -0.4544 0.7557 -0.4716
vn -0.5355 -0.1962 -0.8215
vn -0.8369 0.3460 -0.4240
vn -0.6966 0.6188 -0.3631
vn 0.1854 0.9546 -0.2332
vn -0.3399 -0.1149 -0.9334
vn -0.0401 0.5060 -0.8616
vn 0.2234 -0.9747 0.0089
vn 0.5006 0.6062 0.6180
vn 0.2611 -0.9587 0.1131
vn 0.1385 -0.9885 0.0611
vn 0.0075 -0.9155 -0.4023
vn -0.1339 -0.9899 -0.0468
vn 0.9969 0.0721 0.0317
vn 0.8558 -0.4776 -0.1988
vn 0.5291 -0.6483 0.5475
vn 0.7196 -0.6570 -0.2248
vn 0.7577 -0.6016 -0.2529
vn 0.7708 -0.6199 -0.1472
vn 0.9188 -0.3928 -0.0388
vn 0.1114 0.6218 0.7752
vn 0.1303 0.8705 -0.4746
vn -0.1222 0.9887 0.0872
vn 0.3098 -0.2803 -0.9085
vn 0.8098 0.5625 -0.1670
vn 0.7045 0.5351 -0.4662
vn 0.4991 0.8203 -0.2793
vn 0.9268 0.3747 -0.0266
vn 0.8657 -0.3147 0.3893
vn 0.7260 0.6090 0.3193
vn 0.9355 0.2583 -0.2410
vn 0.9865 -0.1227 0.1083
vn -0.4833 -0.7759 0.4054
vn -0.6553 -0.4655 0.5949
vn -0.0957 -0.9222 0.3746
vn -0.9591 0.2563 0.1200
vn -0.1762 0.0836 0.9808
vn -0.1703 0.3051 0.9370
vn -0.5016 0.8596 0.0972
vn -0.7593 -0.6321 -0.1546
vn -0.2383 -0.9610 -0.1406
vn -0.5059 -0.8515 0.1377
vn -0.1988 -0.9238 0.3273
vn -0.2674 -0.9238 -0.2742
vn -0.2829 -0.8977 0.3378
vn -0.8386 -0.1587 0.5212
vn -0.9658 0.0787 0.2469
vn -0.7464 -0.3931 -0.5370
vn -0.9027 -0.4121 0.1240
vn -0.9369 0.3487 0.0238
vn -0.4038 0.5269 0.7479
vn -0.7075 0.6634 -0.2436
vn -0.6924 0.7063 -0.1475
vn -0.4213 0.4537 0.7853
vn -0.2087 0.9714 0.1132
vn -0.1981 0.9313 -0.3057
vn -0.1992 0.7908 -0.5788
vn -0.0987 0.7430 -0.6620
vn 0.4186 -0.3616 0.8331
vn 0.6690 -0.3023 0.6790
vn 0.6516 -0.7534 0.0885
vn 0.2569 0.9635 0.0750
vn 0.8195 0.0319 0.5721
vn 0.4528 0.8740 0.1763
vn 0.2565 -0.8487 -0.4626
vn 0.2657 -0.9491 -0.1689
vn 0.8519 -0.4800 -0.2097
vn 0.4738 -0.8646 0.1670
vn 0.6416 -0.7514 0.1539
vn 0.4339 -0.5799 -0.6895
vn 0.1905 0.6657 0.7215
vn 0.0607 0.9623 0.2650
vn 0.1921 0.8260 0.5299
vn 0.6591 0.1939 0.7266
vn 0.6624 0.2455 0.7078
vn 0.4994 0.8538 -0.1472
vn 0.7918 0.6072 0.0665
vn 0.6088 0.7865 -0.1041
vn 0.8963 -0.3149 -0.3121
vn 0.7419 0.2994 -0.5999
vn 0.5727 0.7089 -0.4117
vn 0.5039 0.1681 -0.8473
vn 0.9037 -0.2904 0.3145
vn 0.8361 0.4186 0.3546
vn 0.9508 0.2499 0.1830
vn 0.9044 -0.1296 -0.4065
vn 0.8380 0.2190 -0.4998
s 0
usemtl Material
f 4//1 2//1 1//1
f 1//2 8//2 25//2
f 23//3 14//3 13//3
f 7//4 2//4 4//4
f 10//5 4//5 25//5
f 7//6 4//6 10//6
f 12//7 17//7 11//7
f 23//8 39//8 14//8
f 15//9 14//9 39//9
f 15//10 38//10 14//10
f 18//11 11//11 24//11
f 11//12 10//12 25//12
f 18//13 19//13 22//13
f 13//14 20//14 21//14
f 20//15 18//15 22//15
f 23//16 13//16 21//16
f 19//17 24//17 26//17
f 19//18 26//18 27//18
f 22//19 31//19 28//19
f 22//20 27//20 31//20
f 39//21 23//21 29//21
f 29//22 23//22 21//22
f 29//23 21//23 28//23
f 28//24 31//24 50//24
f 29//25 40//25 39//25
f 51//26 40//26 29//26
f 33//27 5//27 7//27
f 8//28 6//28 36//28
f 16//29 33//29 7//29
f 17//30 37//30 16//30
f 37//31 17//31 12//31
f 38//32 37//32 12//32
f 41//33 36//33 34//33
f 41//34 33//34 16//34
f 41//35 16//35 42//35
f 38//36 43//36 37//36
f 37//37 46//37 42//37
f 46//38 37//38 43//38
f 47//39 43//39 44//39
f 26//40 35//40 48//40
f 31//41 30//41 50//41
f 28//42 50//42 32//42
f 40//43 45//43 39//43
f 35//44 36//44 41//44
f 50//45 53//45 54//45
f 50//46 30//46 53//46
f 55//47 54//47 47//47
f 52//48 41//48 42//48
f 53//49 49//49 48//49
f 53//50 46//50 54//50
f 47//51 54//51 43//51
f 7//52 3//52 2//52
f 2//53 3//53 1//53
f 7//54 5//54 3//54
f 4//55 1//55 25//55
f 1//56 3//56 6//56
f 8//57 1//57 6//57
f 9//58 25//58 8//58
f 12//59 11//59 18//59
f 10//60 16//60 7//60
f 17//61 10//61 11//61
f 17//62 16//62 10//62
f 13//63 38//63 12//63
f 14//64 38//64 13//64
f 24//65 11//65 25//65
f 18//66 24//66 19//66
f 12//67 18//67 20//67
f 20//68 13//68 12//68
f 21//69 20//69 22//69
f 24//70 25//70 9//70
f 22//71 19//71 27//71
f 28//72 21//72 22//72
f 26//73 24//73 9//73
f 27//74 26//74 30//74
f 27//75 30//75 31//75
f 32//76 29//76 28//76
f 32//77 51//77 29//77
f 6//78 3//78 5//78
f 34//79 6//79 5//79
f 34//80 5//80 33//80
f 9//81 8//81 35//81
f 36//82 6//82 34//82
f 35//83 8//83 36//83
f 39//84 44//84 15//84
f 15//85 44//85 38//85
f 33//86 41//86 34//86
f 37//87 42//87 16//87
f 44//88 43//88 38//88
f 45//89 44//89 39//89
f 26//90 9//90 35//90
f 30//91 26//91 49//91
f 49//92 26//92 48//92
f 52//93 35//93 41//93
f 52//94 48//94 35//94
f 53//95 30//95 49//95
f 55//96 50//96 54//96
f 55//97 32//97 50//97
f 45//98 47//98 44//98
f 45//99 51//99 55//99
f 55//100 51//100 32//100
f 40//101 51//101 45//101
f 46//102 52//102 42//102
f 53//103 48//103 52//103
f 46//104 53//104 52//104
f 43//105 54//105 46//105
f 45//106 55//106 47//106
