# Blender 4.1.1
# www.blender.org
mtllib hexagon.mtl
o Cylinder
v 0.000000 -1.000000 -0.442265
v 0.000000 -0.950000 -0.500000
v 0.000000 -0.000000 -0.442265
v 0.000000 -0.050000 -0.500000
v 0.383013 -1.000000 -0.221132
v 0.433013 -0.950000 -0.250000
v 0.383013 -0.000000 -0.221132
v 0.433013 -0.050000 -0.250000
v 0.433013 -0.950000 0.250000
v 0.383013 -1.000000 0.221133
v 0.383013 0.000000 0.221132
v 0.433013 -0.050000 0.250000
v 0.000000 -0.950000 0.500000
v 0.000000 -1.000000 0.442265
v 0.000000 0.000000 0.442265
v 0.000000 -0.050000 0.500000
v -0.433013 -0.950000 0.250000
v -0.383013 -1.000000 0.221133
v -0.433013 -0.050000 0.250000
v -0.383013 0.000000 0.221132
v -0.383013 -1.000000 -0.221132
v -0.433013 -0.950000 -0.250000
v -0.383013 -0.000000 -0.221132
v -0.433013 -0.050000 -0.250000
vn -0.0000 -1.0000 -0.0000
vn 0.5000 -0.0000 0.8660
vn -0.5000 -0.0000 0.8660
vn -1.0000 -0.0000 -0.0000
vn 1.0000 -0.0000 -0.0000
vn 0.5000 -0.0000 -0.8660
vn -0.0000 1.0000 -0.0000
vn -0.7071 0.7071 -0.0000
vn 0.3536 -0.7071 -0.6124
vn 0.7071 -0.7071 -0.0000
vn 0.7071 0.7071 -0.0000
vn 0.3536 -0.7071 0.6124
vn 0.3536 0.7071 0.6124
vn -0.3536 -0.7071 0.6124
vn -0.3536 0.7071 0.6124
vn -0.7071 -0.7071 -0.0000
vn -0.3536 0.7071 -0.6124
vn 0.3536 0.7071 -0.6124
vn -0.3536 -0.7071 -0.6124
vn -0.5000 -0.0000 -0.8660
vt 0.750000 0.462287
vt 0.933846 0.356144
vt 0.933846 0.143856
vt 0.750000 0.037713
vt 0.566154 0.143856
vt 0.566154 0.356144
vt 0.666667 0.525000
vt 0.666667 0.975000
vt 0.500000 0.975000
vt 0.500000 0.525000
vt 0.500000 0.975000
vt 0.333333 0.975000
vt 0.333333 0.525000
vt 0.333333 0.975000
vt 0.166667 0.975000
vt 0.166667 0.525000
vt 0.833333 0.525000
vt 0.833333 0.975000
vt 0.666667 0.975000
vt 1.000000 0.525000
vt 1.000000 0.975000
vt 0.833333 0.975000
vt 0.433846 0.356144
vt 0.250000 0.462287
vt 0.066154 0.356144
vt 0.066154 0.143856
vt 0.250000 0.037713
vt 0.433846 0.143856
vt 0.323711 1.000000
vt 0.176289 1.000000
vt 0.842955 0.500000
vt 0.990377 0.500000
vt 0.676289 0.500000
vt 0.823711 0.500000
vt 0.823711 1.000000
vt 0.676289 1.000000
vt 0.509623 0.500000
vt 0.657045 0.500000
vt 0.657044 1.000000
vt 0.509623 1.000000
vt 0.342955 0.500000
vt 0.490377 0.500000
vt 0.490377 1.000000
vt 0.342955 1.000000
vt 0.176289 0.500000
vt 0.323711 0.500000
vt 0.000000 0.975000
vt 0.166667 0.975000
vt 0.157044 1.000000
vt 0.009623 1.000000
vt 0.990377 1.000000
vt 0.842956 1.000000
vt 0.009623 0.500000
vt 0.157045 0.500000
vt 0.000000 0.525000
s 0
usemtl Material
f 1/1/1 5/2/1 10/3/1 14/4/1 18/5/1 21/6/1
f 9/7/2 12/8/2 16/9/2 13/10/2
f 13/10/3 16/11/3 19/12/3 17/13/3
f 17/13/4 19/14/4 24/15/4 22/16/4
f 6/17/5 8/18/5 12/19/5 9/7/5
f 2/20/6 4/21/6 8/22/6 6/17/6
f 7/23/7 3/24/7 23/25/7 20/26/7 15/27/7 11/28/7
f 20/29/8 23/30/8 24/15/8 19/14/8
f 2/20/9 6/17/9 5/31/9 1/32/9
f 6/17/10 9/7/10 10/33/10 5/34/10
f 7/35/11 11/36/11 12/19/11 8/18/11
f 9/7/12 13/10/12 14/37/12 10/38/12
f 11/39/13 15/40/13 16/9/13 12/8/13
f 13/10/14 17/13/14 18/41/14 14/42/14
f 15/43/15 20/44/15 19/12/15 16/11/15
f 17/13/16 22/16/16 21/45/16 18/46/16
f 4/47/17 24/48/17 23/49/17 3/50/17
f 3/51/18 7/52/18 8/22/18 4/21/18
f 1/53/19 21/54/19 22/16/19 2/55/19
f 22/16/20 24/48/20 4/47/20 2/55/20
