# Blender 3.6.4
# www.blender.org
mtllib mountain.mtl
o Cone
v 0.000000 0.000000 -0.500000
v 0.433013 0.000000 -0.250000
v 0.433013 0.000000 0.250000
v 0.000000 0.000000 0.500000
v -0.433013 0.000000 0.250000
v -0.433013 0.000000 -0.250000
v 0.000000 1.500000 0.000000
vn 0.4804 0.2774 -0.8321
vn 0.9608 0.2774 -0.0000
vn 0.4804 0.2774 0.8321
vn -0.4804 0.2774 0.8321
vn -0.0000 -1.0000 -0.0000
vn -0.9608 0.2774 -0.0000
vn -0.4804 0.2774 -0.8321
vt 0.250000 0.490000
vt 0.250000 0.250000
vt 0.457846 0.370000
vt 0.457846 0.130000
vt 0.250000 0.010000
vt 0.042154 0.130000
vt 0.750000 0.490000
vt 0.957846 0.370000
vt 0.957846 0.130000
vt 0.750000 0.010000
vt 0.542154 0.130000
vt 0.542154 0.370000
vt 0.042154 0.370000
s 0
f 1/1/1 7/2/1 2/3/1
f 2/3/2 7/2/2 3/4/2
f 3/4/3 7/2/3 4/5/3
f 4/5/4 7/2/4 5/6/4
f 1/7/5 2/8/5 3/9/5 4/10/5 5/11/5 6/12/5
f 5/6/6 7/2/6 6/13/6
f 6/13/7 7/2/7 1/1/7
